Patient4_TMGait_0pt4_01_right_03_EMG.mot
version=1
nRows=23
nColumns=33
inDegrees=no
endheader
time	1LAddLong	2LGlutMax	3LGlutMed	4LIliopsoas	5LSemiMemb	6LBicFemLong	7LRecFem	8LVastMed	9LVastLat	10LGasMed	11LTibAnt	12lTibPost	13LPeroneusLong	14LSol	15LExtDigLong	16LFlexDigLong	17RAddLong	18RGlutMax	19RGlutMed	20RIliopsoas	21RSemiMemb	22RBicFemLong	23RRecFem	24RVastMed	25RVastLat	26RGasMed	27RTibAnt	28RTibPost	29RPeroneusLong	30RSol	31RExtDigLong	32RFlexDigLong
3.917	0.001526	-0.072327	-0.14145	0.005646	0.008698	-0.027313	-0.12405	-0.009766	0.1239	-0.051422	0.007629	-0.041351	-0.08316	-0.16113	-0.018768	-0.014954	-0.077972	-0.18463	-0.57983	0.063171	0.29617	-0.25116	0.35675	-0.1561	0.041962	-0.043182	-0.072479	0.035248	-0.44281	-0.16312	0.006256	-0.016785
3.918	0.006409	-0.054016	-0.13855	-0.007324	0.003662	-0.037994	-0.10193	-0.007477	0.099487	-0.039825	-0.047455	-0.02182	-0.098724	0.17181	-0.0354	-0.005035	-0.016937	-0.13245	-0.23743	0.064545	-0.2449	-0.16769	0.51743	-0.081177	-0.054169	-0.038757	-0.06424	0.016174	-0.31647	-0.031738	0.000305	-0.012665
3.919	0.011597	-0.061188	-0.12482	0	0.006561	-0.027618	-0.063324	-0.008698	0.10483	-0.03952	-0.019989	0.013733	-0.059052	0.37231	-0.028687	-0.026398	-0.003204	-0.18417	-0.045166	-0.022125	-0.17868	-0.11566	0.5365	-0.046387	-0.10727	-0.003967	-0.005035	-0.019226	0.64041	0.046082	-0.002747	-0.005798
3.92	0.013733	-0.04425	-0.15854	0	0.007172	-0.009308	-0.009613	-0.013123	0.095825	-0.043182	0.015106	0.022125	-0.009766	0.2385	-0.013428	-0.028992	-0.00824	-0.31799	0.020294	-0.016327	-0.096741	-0.072021	0.56305	-0.032501	-0.14725	0.052032	0.073853	-0.023041	0.95459	0.090027	-0.001221	-0.013428
3.921	0.013733	-0.10864	-0.20065	0.005035	0.006104	-0.01236	0.030823	-0.015411	0.088196	-0.038605	-0.011292	0.035858	0.027313	0.071869	-0.036926	-0.007477	-0.048523	-0.41596	-0.72601	-0.001068	-0.40131	0.17151	0.5365	-0.13107	-0.23804	0.031586	0.10284	-0.043182	1.2643	-0.032959	-0.000305	-0.019989
3.922	0.001068	-0.12665	-0.21332	0.005798	0.009613	-0.030975	0.12405	-0.004272	0.09964	-0.042725	-0.003357	0.041962	0.042267	0.096588	-0.038147	-0.008087	-0.059357	-0.49194	-0.46188	-0.042572	-0.13672	0.26108	0.37705	-0.071564	-0.2356	0.028381	0.2446	0.000458	-0.54138	-0.26382	-0.001984	-0.018158
3.923	0.00946	-0.090027	-0.20493	0.001068	0.004425	-0.023499	0.28702	-0.007935	0.10574	-0.048218	0.003815	0.051575	0.075836	0.018616	-0.0177	0.008698	-0.02655	-0.43488	0.54596	-0.094299	0.10117	0.29373	0.23315	-0.075226	-0.13107	0.031433	0.031891	0.047913	-0.70297	-0.15762	0.000458	-0.021362
3.924	0.000763	-0.11444	-0.22064	0.006409	0.008545	-0.010834	0.35446	-0.007629	0.096893	-0.073242	-0.02533	0.04837	0.08606	0.030823	0.005341	-0.003815	0.008087	-0.50201	0.5748	-0.08255	0.49652	0.059052	0.20325	-0.18585	-0.14511	0.028076	0.12741	-0.013123	-1.1441	-0.018463	0.003052	-0.022278
3.925	-0.001831	-0.094452	-0.20187	0.004578	0.008087	-0.031281	0.34805	-0.010834	0.074005	-0.057678	-0.013885	0.036774	-0.014954	0.048218	-0.0177	-0.003967	0.057068	-0.58121	0.1593	-0.011444	0.41855	-0.13245	0.27008	-0.27481	-0.18005	0.046692	0.14496	-0.024261	-0.57556	0.002594	-0.00824	-0.016022
3.926	-0.009003	-0.10803	-0.18677	-0.001373	0.007477	-0.017242	0.31204	-0.017548	0.075989	-0.046387	-0.001373	0.062561	-0.18524	0.17822	0.011444	0.001068	0.016174	-0.76752	-0.31754	-0.015106	-0.02655	-0.17487	0.13046	-0.062714	-0.007629	0.013428	0.022888	0.057068	-0.35172	-0.046387	-0.002899	-0.017853
3.927	-0.005493	-0.12192	-0.16525	0.002594	0.006409	-0.013123	0.35187	-0.013428	0.065613	-0.022583	0.00351	0.063934	-0.22949	0.1239	-0.035706	-0.010681	-0.02243	-0.81909	-0.17441	0.001068	-0.46402	-0.18021	0.10605	0.083618	0.18951	0.021973	0.066833	0.005188	-0.26337	0.045471	-0.002136	-0.019531
3.928	-0.006409	-0.11551	-0.15564	0.000458	0.004425	-0.031586	0.33814	-0.007629	0.057983	0.024719	0.018463	0.063477	-0.36911	-0.012665	-0.076599	-0.024872	-0.024567	-0.92483	-0.34714	-0.036621	-0.42664	-0.16892	0.29862	0.020752	0.1062	0.009766	-0.099182	-0.008087	-0.054321	-0.034637	-0.000916	-0.01297
3.929	-0.001373	-0.1033	-0.13672	0.000153	0.01297	-0.019379	0.30685	-0.010071	0.066376	0.030212	0.006256	0.064087	-0.30106	-0.000458	-0.061951	-0.030365	-0.029449	-0.896	-0.50003	-0.015717	-0.044403	-0.18936	0.27313	0.10269	0.10513	0.00061	-0.23102	0.031281	0.14191	-0.22629	-0.001831	-0.016785
3.93	-0.00473	-0.084686	-0.12741	-0.003815	0.007324	-0.015106	0.16937	-0.006561	0.050201	-0.026855	0.010986	0.052795	-0.035248	0.073395	0.02121	-0.013428	-0.005035	-0.84427	-0.18509	-0.026245	0.21835	-0.007019	0.3122	0.10025	0.072021	-0.01297	-0.19058	-0.090637	0.25742	-0.071106	-0.002747	-0.006104
3.931	-0.001984	-0.09903	-0.15533	-0.002594	0.001984	0.00946	0.052795	-0.002289	0.041199	-0.041962	-0.013733	0.049896	-0.002289	0.059814	0.009918	-0.004883	0.016174	-0.8136	-0.45273	0.012207	0.00412	0.059052	0.31342	0.091553	0.073547	-0.004883	-0.14999	0.013733	0.098877	0.38757	-0.002136	-0.005951
3.932	-0.000763	-0.083313	-0.16342	-0.004425	0.001373	0.020294	-0.084381	-0.006104	0.037384	-0.033264	0.001373	0.06134	-0.1268	-0.10437	-0.013123	-0.024567	0.012817	-0.82001	-0.50079	0.040283	0.086212	-0.00946	0.45822	0.056458	0.054474	0.008087	-0.12665	0.022888	0.076447	0.50095	-0.002899	-0.002899
3.933	-0.001068	-0.10849	-0.1593	-0.00946	0.005493	0.015259	-0.20004	0.003357	0.036774	-0.010986	0.001373	0.06073	-0.21576	-0.26749	-0.042114	-0.016174	0.005798	-0.84442	-0.32852	-0.009308	0.289	-0.045776	0.39856	-0.10376	0.008698	0.014038	-0.045013	0.006256	-0.032501	0.27359	-0.002747	-0.003204
3.934	0.005188	-0.093994	-0.15442	0	0.005646	0.019226	-0.13275	0.014191	0.042267	-0.011902	-0.00885	0.063477	-0.15137	-0.078583	-0.06485	-0.014191	-0.00946	-0.89539	0.30304	-0.016327	0.20325	-0.080414	0.37705	-0.26245	0.31967	0.02121	0.006256	0.001526	-0.43793	0.14099	-0.002136	-0.00946
3.935	0.001373	-0.065155	-0.13336	0.000458	0.006866	0.022125	-0.068665	0.007324	0.03891	-0.029297	-0.005493	0.061951	-0.1506	0.11414	-0.029602	-0.020599	0.006409	-0.85648	-0.16586	0.085297	-0.009308	-0.088043	0.34821	-0.33188	0.40253	0.024872	-0.011902	-0.010681	-0.49454	0.12955	-0.002136	-0.006104
3.936	0.004578	-0.071106	-0.15671	0.00946	0.005951	0.021515	-0.064545	0.005341	0.035706	-0.035858	-0.021515	0.059204	-0.059814	0.065765	0.067902	-0.003967	-0.00473	-0.75668	1.098	0.12863	-0.18692	-0.043793	0.39963	-0.21713	0.1796	0.009308	-0.05661	-0.061951	-0.19806	0.14313	-0.004272	-0.004883
3.937	0.006256	-0.12192	-0.23331	0.010986	-0.000458	0.014954	-0.20477	0.012054	0.0354	-0.041046	-0.019836	0.05722	0.16144	-0.001678	0.14221	-0.01358	-0.00473	-0.65231	1.1519	0.041504	-0.20966	-0.11261	0.4454	0.018921	-0.13473	-0.015259	-0.021057	-0.25299	0.081024	0.21942	-0.003815	-0.003662
3.938	0.005798	-0.12634	-0.20401	0.003815	0.002441	0.016174	-0.19821	0.018921	0.040283	-0.048981	-0.086975	0.052032	0.34912	0.002747	0.057678	-0.014343	-0.043182	-0.64682	-0.12207	0.040741	0.010986	-0.18463	0.10941	0.30518	-0.46051	-0.039673	-0.012054	0.077972	-0.027161	0.036163	-0.000458	-0.007935
3.939	0.005493	-0.079956	-0.19073	-0.016327	0.011139	-0.001678	0.058441	0.014954	0.033875	-0.048218	-0.15884	0.052032	0	-0.000458	-0.02121	-0.018768	-0.088959	-0.52033	-0.17929	-0.10574	-0.007782	-0.029755	-0.39475	0.25101	-0.71594	-0.043945	0.044708	0.23636	0.13779	-0.16281	-0.00061	-0.011902
